<?xml version="1.0" encoding="utf-8"?>
<!-- Generator: Adobe Illustrator 19.0.0, SVG Export Plug-In . SVG Version: 6.00 Build 0)  -->
<!DOCTYPE svg PUBLIC "-//W3C//DTD SVG 1.1//EN" "http://www.w3.org/Graphics/SVG/1.1/DTD/svg11.dtd">
<svg version="1.1" id="Layer_1" xmlns="http://www.w3.org/2000/svg" xmlns:xlink="http://www.w3.org/1999/xlink" x="0px" y="0px"
	 viewBox="0 0 64 64" style="enable-background:new 0 0 64 64;" xml:space="preserve">
<style type="text/css">
	.st0{fill:#FFFFFF;}
</style>
<path id="White_2_" class="st0" d="M53.4,8H10.6C9.2,8,8,9.2,8,10.6v42.7c0,1.5,1.2,2.6,2.6,2.6h23V37.4h-6.3v-7.2h6.3v-5.3
	c0-6.2,3.8-9.6,9.3-9.6c2.6,0,4.9,0.2,5.6,0.3V22l-3.8,0c-3,0-3.6,1.4-3.6,3.5v4.6h7.2l-0.9,7.2h-6.2V56h12.2c1.5,0,2.6-1.2,2.6-2.6
	V10.6C56,9.2,54.8,8,53.4,8z"/>
</svg>
