<?xml version="1.0" encoding="utf-8"?>
<!-- Generator: Adobe Illustrator 19.0.0, SVG Export Plug-In . SVG Version: 6.00 Build 0)  -->
<!DOCTYPE svg PUBLIC "-//W3C//DTD SVG 1.1//EN" "http://www.w3.org/Graphics/SVG/1.1/DTD/svg11.dtd">
<svg version="1.1" id="Layer_1" xmlns="http://www.w3.org/2000/svg" xmlns:xlink="http://www.w3.org/1999/xlink" x="0px" y="0px"
	 viewBox="0 0 64 64" style="enable-background:new 0 0 64 64;" xml:space="preserve">
<style type="text/css">
	.st0{fill:#FFFFFF;}
</style>
<g id="XMLID_8_">
	<g id="XMLID_12_">
		<g id="XMLID_13_">
			<path id="XMLID_14_" class="st0" d="M52.6,7.9h-41c-2,0-3.6,1.6-3.6,3.5v41.2c0,1.9,1.6,3.5,3.6,3.5h41c2,0,3.6-1.6,3.6-3.5V11.4
				C56.2,9.5,54.6,7.9,52.6,7.9z M22.3,49h-7.1V26h7.1V49z M18.7,22.8c-2.3,0-4.1-1.9-4.1-4.1c0-2.3,1.9-4.1,4.1-4.1
				c2.3,0,4.1,1.9,4.1,4.1C22.9,21,21,22.8,18.7,22.8z M49,49h-7.1V37.8c0-2.7,0-6.1-3.7-6.1c-3.7,0-4.3,2.9-4.3,5.9V49h-7.1V26h6.9
				v3.1h0.1c1-1.8,3.3-3.7,6.8-3.7c7.2,0,8.6,4.8,8.6,10.9V49z"/>
		</g>
	</g>
	<g id="XMLID_9_">
		<polygon id="XMLID_2_" class="st0" points="57.3,47.8 57.7,47.8 57.7,49 57.9,49 57.9,47.8 58.3,47.8 58.3,47.5 57.3,47.5 		"/>
		<polygon id="XMLID_1_" class="st0" points="59.7,47.5 59.3,48.6 58.9,47.5 58.6,47.5 58.6,49 58.8,49 58.8,47.9 59.2,49 59.4,49 
			59.8,47.9 59.8,49 60,49 60,47.5 		"/>
	</g>
</g>
</svg>
